<svg xmlns="http://www.w3.org/2000/svg" viewBox="708 507 497 69">
  <defs>
    <style>.cls-1{fill:#1e1d1d;}</style>
  </defs>
  <g>
    <path class="cls-1" d="M838.32,567.09v-3.66c5.22-.62,5.76-1.71,5.76-4.75v-20.64c0-3.04-.93-4.21-5.76-4.36v-3.43l12.7-2.26.47.47v7.17h.16c3.19-4.13,7.55-7.63,14.1-7.63,5.84,0,9.74,3.12,11.53,7.79h.16c3.27-4.05,7.94-7.79,14.56-7.79,7.71,0,13.01,4.52,13.01,14.56v16.12c0,3.04.55,4.13,5.76,4.75v3.66h-19.24v-3.66c4.59-.55,5.61-1.4,5.61-4.75v-14.64c0-7.63-3.04-10.67-8.1-10.67-6.23,0-10.59,4.67-10.59,8.26v17.06c0,3.43,1.01,4.21,5.61,4.75v3.66h-19v-3.66c4.59-.55,5.53-1.32,5.53-4.75v-14.64c0-7.63-3.04-10.67-8.1-10.67-6.15,0-10.51,4.67-10.51,8.26v17.06c0,3.43,1.01,4.21,5.61,4.75v3.66h-19.24Z"/>
    <path class="cls-1" d="M949.63,557.98c-3.66,6.93-9.81,9.97-17.06,9.97-10.9,0-19-7.32-19-19.39,0-11.45,7.71-20.56,19.55-20.56,10.2,0,15.73,6,15.73,14.64,0,1.56-.16,3.04-.55,4.6h-26.71c.23,9.74,5.37,15.34,12.85,15.34,5.69,0,9.19-2.65,11.6-6.93l3.58,2.34ZM921.82,543.41h16.2c2.26,0,3.27-1.09,3.27-2.96,0-4.91-2.88-8.65-8.41-8.65-5.84,0-10.12,4.52-11.06,11.6Z"/>
    <path class="cls-1" d="M990.63,557.98c-3.66,6.93-9.81,9.97-17.06,9.97-10.9,0-19-7.32-19-19.39,0-11.45,7.71-20.56,19.55-20.56,10.2,0,15.73,6,15.73,14.64,0,1.56-.16,3.04-.54,4.6h-26.71c.23,9.74,5.37,15.34,12.85,15.34,5.69,0,9.19-2.65,11.6-6.93l3.58,2.34ZM962.83,543.41h16.2c2.26,0,3.27-1.09,3.27-2.96,0-4.91-2.88-8.65-8.41-8.65-5.84,0-10.12,4.52-11.06,11.6Z"/>
    <path class="cls-1" d="M1023.22,561.09c-2.49,3.82-7.24,6.78-12.77,6.78-6.85,0-10.51-4.21-10.51-11.76v-22.74h-6.39v-4.13c6.85-.16,9.11-3.5,9.35-11.99h4.91v11.53h13.01v4.6h-13.01v20.33c0,5.61,1.64,8.18,5.53,8.18,3.04,0,5.61-1.56,7.24-3.35l2.65,2.57Z"/>
    <path class="cls-1" d="M1066.64,547.07c0,13.47-8.1,20.87-19.47,20.87-4.05,0-9.5-1.09-12.7-3.89l-2.57,3.04h-3.04v-47.59c0-2.88-.62-4.21-5.76-4.36v-3.43l13.09-2.26.54.47v24.92c2.96-4.13,7.48-6.85,13.47-6.85,9.97,0,16.43,7.32,16.43,19.08ZM1058.38,548.4c0-9.81-4.6-15.66-11.22-15.66-5.69,0-10.44,4.6-10.44,10.44v11.53c0,5.45,4.52,9.19,10.12,9.19,6.93,0,11.53-5.3,11.53-15.5Z"/>
    <path class="cls-1" d="M1108.29,557.98c-3.66,6.93-9.81,9.97-17.06,9.97-10.9,0-19-7.32-19-19.39,0-11.45,7.71-20.56,19.55-20.56,10.2,0,15.73,6,15.73,14.64,0,1.56-.16,3.04-.55,4.6h-26.71c.23,9.74,5.37,15.34,12.85,15.34,5.69,0,9.19-2.65,11.61-6.93l3.58,2.34ZM1080.49,543.41h16.2c2.26,0,3.27-1.09,3.27-2.96,0-4.91-2.88-8.65-8.41-8.65-5.84,0-10.13,4.52-11.06,11.6Z"/>
    <path class="cls-1" d="M1113.66,557.12c0-8.88,8.49-13.01,26.09-13.63v-1.95c0-5.3-2.96-9.58-8.57-9.58-8.8,0-6.15,7.63-11.92,7.63-1.95,0-3.5-1.17-3.5-3.5,0-4.6,7.48-8.1,15.81-8.1,10.59,0,15.97,4.75,15.97,13.55v15.89c0,3.35.93,4.52,3.5,4.52,1.4,0,2.57-.39,3.12-.62v3.74c-2.03,1.4-5.14,2.88-8.02,2.88-3.66,0-5.61-2.1-5.69-6.93h-.23c-3.27,3.66-7.63,6.93-14.33,6.93-7.4,0-12.23-3.89-12.23-10.83ZM1139.75,553.69v-6.62c-11.29.47-17.91,3.04-17.91,9.42,0,4.05,2.57,6.54,7.01,6.54,6.08,0,10.9-4.83,10.9-9.35Z"/>
    <path class="cls-1" d="M1158.62,567.09v-3.66c5.14-.62,5.76-1.56,5.76-4.75v-20.64c0-3.04-.86-4.21-5.76-4.36v-3.43l12.69-2.26.47.47v7.09h.16c3.12-3.82,8.26-7.56,14.41-7.56,8.41,0,13.24,4.67,13.24,14.72v15.97c0,3.19.7,4.13,5.76,4.75v3.66h-19.16v-3.66c5.06-.62,5.53-1.56,5.53-4.75v-14.56c0-7.71-2.96-10.75-8.41-10.75s-11.06,4.67-11.06,8.26v17.06c0,3.19.47,4.13,5.61,4.75v3.66h-19.24Z"/>
  </g>
  <path class="cls-1" d="M809.58,534.35v36.19l-19.31-17.22c-1.26-1.12-2.84-1.68-4.42-1.68-.2,0-.39.01-.59.03-.2.01-.4.04-.59.08-.02,0-.05,0-.07.01-.14.02-.28.05-.41.09-1,.26-1.94.75-2.76,1.47l-15.62,13.93c-2.11,1.88-5.28,1.88-7.39,0l-15.62-13.93c-2.52-2.24-6.32-2.24-8.84,0l-19.31,17.22v-36.19l16.32-14.56c4.22-3.76,10.59-3.76,14.82,0l16.32,14.56,16.33-14.56c4.22-3.76,10.59-3.76,14.81,0l16.33,14.56Z"/>
</svg>